<?xml version="1.0" encoding="utf-8"?>
<!-- Generator: Adobe Illustrator 24.0.1, SVG Export Plug-In . SVG Version: 6.00 Build 0)  -->
<svg version="1.1" id="Layer_1" xmlns="http://www.w3.org/2000/svg" xmlns:xlink="http://www.w3.org/1999/xlink" x="0px" y="0px"
	 viewBox="0 0 495 404" style="enable-background:new 0 0 495 404;" xml:space="preserve">
<style type="text/css">
	.st0{fill:#FFFFFF;}
	.st1{fill:none;}
	.st2{font-family:'AmericanTypewriter-CondensedLight';}
	.st3{font-size:72px;}
	.st4{fill:#603813;}
	.st5{fill:#E73227;}
</style>
<g>
	<g>
		<g>
			<path class="st0" d="M256.74,197.37c-6.62,0-13.08-2.33-18.19-6.56l-46.26-38.29c-12.13-10.04-13.83-28.08-3.79-40.21
				l41.33-49.92c5.44-6.58,13.47-10.35,22.01-10.35c6.62,0,13.08,2.33,18.19,6.56l46.26,38.29c5.88,4.86,9.5,11.73,10.22,19.32
				c0.72,7.59-1.57,15.01-6.43,20.89l-41.33,49.92C273.31,193.6,265.29,197.37,256.74,197.37z"/>
			<path d="M251.84,52.55L251.84,52.55c6.51,0,12.85,2.29,17.87,6.44l46.26,38.29c11.92,9.86,13.59,27.59,3.72,39.5l-41.33,49.92
				c-5.35,6.46-13.23,10.17-21.63,10.17c-6.51,0-12.85-2.29-17.87-6.44l-46.26-38.29c-5.77-4.78-9.34-11.52-10.04-18.98
				c-0.7-7.46,1.54-14.75,6.32-20.52l41.33-49.92C235.56,56.25,243.45,52.55,251.84,52.55 M251.84,51.55
				c-8.36,0-16.65,3.59-22.4,10.53L188.12,112c-10.23,12.36-8.51,30.68,3.86,40.91l46.26,38.29c5.42,4.49,11.99,6.67,18.51,6.67
				c8.36,0,16.65-3.59,22.4-10.53l41.33-49.92c10.23-12.36,8.51-30.68-3.85-40.91l-46.26-38.29
				C264.93,53.73,258.37,51.55,251.84,51.55L251.84,51.55z"/>
		</g>
		<g>
			<path class="st0" d="M343.2,285.95c-6.62,0-13.08-2.33-18.19-6.56l-46.26-38.29c-5.88-4.86-9.5-11.72-10.22-19.32
				c-0.72-7.59,1.57-15.01,6.43-20.89l41.1-49.66c5.44-6.58,13.47-10.35,22.01-10.35c6.62,0,13.08,2.33,18.19,6.56l46.26,38.29
				c5.88,4.86,9.5,11.73,10.22,19.32c0.72,7.59-1.57,15.01-6.43,20.89l-41.1,49.66C359.77,282.18,351.74,285.95,343.2,285.95z"/>
			<path d="M338.08,141.39L338.08,141.39c6.51,0,12.85,2.29,17.87,6.44l46.26,38.29c5.77,4.78,9.34,11.52,10.04,18.98
				s-1.54,14.75-6.32,20.52l-41.1,49.66c-5.35,6.46-13.23,10.17-21.63,10.17c-6.51,0-12.85-2.29-17.87-6.44l-46.26-38.29
				c-5.77-4.78-9.34-11.52-10.04-18.98c-0.7-7.46,1.54-14.75,6.32-20.52l41.1-49.66C321.8,145.09,329.68,141.39,338.08,141.39
				 M338.08,140.39c-8.36,0-16.65,3.59-22.4,10.53l-41.1,49.66c-10.23,12.36-8.51,30.68,3.85,40.91l46.26,38.29
				c5.42,4.49,11.99,6.67,18.51,6.67c8.36,0,16.65-3.59,22.4-10.53l41.1-49.66c10.23-12.36,8.51-30.68-3.85-40.91l-46.26-38.29
				C351.17,142.58,344.6,140.39,338.08,140.39L338.08,140.39z"/>
		</g>
		<g>
			<g>
				<path class="st0" d="M163.51,290.73c-6.95,0-13.65-2.53-18.87-7.13l-45.06-39.7c-11.81-10.41-12.96-28.49-2.55-40.31
					l42.84-48.63c5.42-6.15,13.23-9.68,21.44-9.68c6.95,0,13.65,2.53,18.87,7.13l45.06,39.7c11.81,10.41,12.96,28.49,2.55,40.31
					l-42.84,48.63C179.53,287.2,171.71,290.73,163.51,290.73z"/>
				<path d="M161.32,144.79v1c6.82,0,13.41,2.49,18.54,7.01l45.06,39.7c5.62,4.95,8.98,11.8,9.45,19.28
					c0.47,7.48-2,14.69-6.95,20.32l-42.84,48.63c-5.32,6.04-13,9.51-21.06,9.51c-6.83,0-13.41-2.49-18.54-7.01l-45.06-39.7
					c-5.62-4.95-8.98-11.8-9.45-19.28c-0.47-7.48,2-14.69,6.95-20.32l42.84-48.63c5.32-6.04,13-9.51,21.06-9.51L161.32,144.79
					 M161.32,144.79c-8.05,0-16.07,3.33-21.81,9.85l-42.84,48.63c-10.61,12.04-9.45,30.4,2.59,41.01l45.06,39.7
					c5.52,4.87,12.37,7.26,19.2,7.26c8.05,0,16.07-3.33,21.81-9.85l42.84-48.63c10.61-12.04,9.45-30.4-2.59-41.01l-45.06-39.7
					C174.99,147.18,168.14,144.79,161.32,144.79L161.32,144.79z"/>
			</g>
		</g>
		
			<rect x="139.75" y="190.74" transform="matrix(1 -1.265383e-03 1.265383e-03 1 -0.2779 0.2057)" class="st1" width="45.33" height="58"/>
		<text transform="matrix(1 -1.265383e-03 1.265383e-03 1 139.7713 239.0753)" class="st2 st3">S</text>
		
			<rect x="317.97" y="188.32" transform="matrix(1 -1.265383e-03 1.265383e-03 1 -0.2747 0.4312)" class="st1" width="45.33" height="58"/>
		<text transform="matrix(1 -1.265383e-03 1.265383e-03 1 317.9952 236.6603)" class="st2 st3">S</text>
		
			<rect x="231.63" y="95.43" transform="matrix(1 -1.265383e-03 1.265383e-03 1 -0.1572 0.3219)" class="st1" width="45.33" height="58"/>
		<text transform="matrix(1 -1.265383e-03 1.265383e-03 1 231.6519 143.7692)" class="st2 st3">S</text>
		<g>
			<path class="st4" d="M288.59,244.11c-0.59-1.28-2.6-1.59-4.07-1.3c-1.62,0.33-3.09,1.2-4.38,2.06c-2.23,1.5-3.93,3.44-5.32,5.5
				c-1.36,2.01-3.92,4.7-6.97,4.67c-1.09-0.01-2.09-0.5-2.85-1.13c-2.29-1.91-2.11-4.44-2.65-6.92c-0.5-2.28-1.68-4.46-2.08-6.74
				c-0.42-2.39-0.71-4.81-1.16-7.2c-0.42-2.24-0.24-4.61-0.91-6.78c-0.48-1.55-1.61-3.5-3.94-3.1c-2.49,0.43-2.7,2.8-2.51,4.49
				c0.31,2.73,0.73,5.49,1.03,8.25c0.22,2.09,0.33,4.16,0.84,6.22c0.27,1.07,1.27,2.66-0.14,3.52c-0.35,0.21-0.83,0.28-1.19,0.11
				c-0.29-0.14-0.44-0.41-0.57-0.67c-0.65-1.32-0.78-2.81-1.22-4.19c-0.45-1.4-1.02-2.77-1.62-4.13c-1.18-2.63-2.54-5.26-3.46-7.93
				c-0.4-1.18-0.62-2.34-0.91-3.54c-0.24-0.97-0.61-2.04-1.65-2.61c-1.54-0.85-3.95-0.17-4.47,1.36c-0.44,1.28-0.13,2.73,0.19,3.99
				c0.83,3.3,1.94,6.61,3.16,9.82c0.95,2.51,2.32,4.88,3.19,7.41c0.14,0.41,1.36,3.97-0.07,3.53c-0.36-0.11-0.54-0.43-0.69-0.72
				c-0.98-1.86-2.05-3.69-3.21-5.47c-1.2-1.84-2.6-3.6-3.72-5.46c-0.76-1.26-1.72-2.48-2.69-3.63c-1.25-1.48-4.28-5.18-7.08-3.87
				c-2.75,1.28,0.44,5.91,1.35,7.29c2.14,3.22,4.74,6.29,7.22,9.33c1.04,1.27,1.93,2.7,2.62,4.14c0.35,0.74,1.21,2.37,0.27,3.08
				c-1.99,1.51-6.93-3.7-10.03-6.44c-1.36-1.2-2.79-2.63-4.61-3.36c-1.33-0.53-3.46-0.28-3.81,1.2c-0.19,0.78,0.4,1.59,0.89,2.19
				c1.75,2.14,4.4,3.81,6.79,5.42c3.29,2.2,5.39,5.48,7.31,8.56c1.05,1.68,1.71,3.34,2.16,5.21c0.44,1.86,0.79,3.76,1.78,5.47
				c1.27,2.2,3.81,3.64,4.56,6.05c0.76,2.42,0.2,4.99-0.03,7.46c-0.3,3.22-0.59,6.43-0.89,9.65c-0.4,4.36-0.8,8.72-1.2,13.08
				c-0.19,2.11-0.39,4.23-0.58,6.34c7.39,1.02,14.73,2.2,21.81,4.29c0.16-2.97,0.33-5.94,0.49-8.92c0.28-5.16,0.56-10.32,0.85-15.48
				c0.11-2.07,0.22-4.14,0.34-6.21c0.17-3.17-0.43-7.03,0.85-10.05c0.85-1.99,3.04-3.28,4.4-5.03c2.46-3.18,7.4-14.17,7.4-14.17
				s3.39-5.69,8.49-10.07C287.12,247.61,289.33,245.71,288.59,244.11z"/>
			<path class="st5" d="M255.77,288.65c-0.69-2.01,1.2-4.96,3.39-5.26c0.48-0.06,1-0.02,1.4,0.22c1.96,1.16-0.31,6.18-0.89,7.68
				c-0.82,2.14-1.79,4.23-2.82,6.3c-0.15,0.3-0.29,0.61-0.49,0.88c-1.94-1.39-3.7-3.39-5.24-5.17c-1.4-1.62-5.39-5.96-3.25-8.2
				c0.31-0.32,0.73-0.52,1.16-0.66c1.12-0.36,2.36-0.31,3.41,0.13C254.1,285.27,255.23,287.07,255.77,288.65z"/>
		</g>
	</g>
</g>
</svg>
